<?xml version="1.0" encoding="UTF-8" standalone="no"?>
<svg
   xmlns:dc="http://purl.org/dc/elements/1.1/"
   xmlns:cc="http://creativecommons.org/ns#"
   xmlns:rdf="http://www.w3.org/1999/02/22-rdf-syntax-ns#"
   xmlns:svg="http://www.w3.org/2000/svg"
   xmlns="http://www.w3.org/2000/svg"
   xmlns:sodipodi="http://sodipodi.sourceforge.net/DTD/sodipodi-0.dtd"
   xmlns:inkscape="http://www.inkscape.org/namespaces/inkscape"
   viewBox="0 0 150 150"
   version="1.1"
   id="svg20"
   sodipodi:docname="bty-logo - Copy.svg"
   inkscape:version="1.0.1 (3bc2e813f5, 2020-09-07)">
  <metadata
     id="metadata26">
    <rdf:RDF>
      <cc:Work
         rdf:about="">
        <dc:format>image/svg+xml</dc:format>
        <dc:type
           rdf:resource="http://purl.org/dc/dcmitype/StillImage" />
      </cc:Work>
    </rdf:RDF>
  </metadata>
  <defs
     id="defs24" />
  <sodipodi:namedview
     pagecolor="#ffffff"
     bordercolor="#666666"
     borderopacity="1"
     objecttolerance="10"
     gridtolerance="10"
     guidetolerance="10"
     inkscape:pageopacity="0"
     inkscape:pageshadow="2"
     inkscape:window-width="1920"
     inkscape:window-height="1001"
     id="namedview22"
     showgrid="false"
     inkscape:zoom="5.5333333"
     inkscape:cx="75"
     inkscape:cy="74.638554"
     inkscape:window-x="-9"
     inkscape:window-y="-9"
     inkscape:window-maximized="1"
     inkscape:current-layer="svg20" />
  <g
     fill="#427F66"
     id="g4">
    <path
       d="M35.5 55.08l25.43-9.7 2.62 6.9-25.42 9.7zM83.53 37.36l25.42-9.7 2.63 6.89-25.43 9.7zM107.3 67.2l4.52-26.83 7.27 1.22-4.53 26.83zM98.87 109.43l4.53-26.83 7.27 1.22-4.53 26.83zM90.98 117.47l-21.55-16.61 4.5-5.84 21.55 16.61zM54.54 87.33L33.12 70.55l4.55-5.8 21.42 16.78zM63.21 84.29l3.93-26.92 7.3 1.06-3.94 26.93zM102.46 72.76L81.9 54.95l4.82-5.57 20.57 17.81zM74.24 84.2l25.56-9.32 2.53 6.93-25.57 9.31z"
       id="path2" />
  </g>
  <g
     fill="#427F66"
     id="g18">
    <ellipse
       cx="26.22"
       cy="60.34"
       rx="16.75"
       ry="16.44"
       id="ellipse6" />
    <ellipse
       cx="72.73"
       cy="44.89"
       rx="19.45"
       ry="19.09"
       id="ellipse8" />
    <ellipse
       cx="118.7"
       cy="28.98"
       rx="16.33"
       ry="16.03"
       id="ellipse10" />
    <ellipse
       cx="110.1"
       cy="73.81"
       rx="16.33"
       ry="16.03"
       id="ellipse12" />
    <ellipse
       cx="99.89"
       cy="122.38"
       rx="16.33"
       ry="16.03"
       id="ellipse14" />
    <ellipse
       cx="65.5"
       cy="92.52"
       rx="16.33"
       ry="16.03"
       id="ellipse16" />
  </g>
  <path
     style="fill:#5d37a2;stroke-width:0.180723"
     d="m 96.596386,137.97238 c -6.323944,-1.35608 -11.159126,-6.08197 -12.577499,-12.29321 -0.453824,-1.98736 -0.414844,-5.09951 0.08811,-7.03459 0.206676,-0.79518 0.767658,-2.24007 1.246623,-3.21087 l 0.870846,-1.76508 -5.382046,-4.15359 c -2.960125,-2.28448 -5.460601,-4.15359 -5.556614,-4.15359 -0.09601,0 -0.701333,0.33028 -1.345155,0.73395 -0.64382,0.40367 -1.92939,1.00478 -2.856822,1.33578 -5.028913,1.79484 -10.264538,1.15665 -14.694896,-1.7912 -4.635375,-3.08428 -7.390909,-8.500293 -7.083729,-13.923113 0.111121,-1.961687 0.71908,-4.375978 1.480146,-5.877871 0.247274,-0.487971 0.44959,-0.966638 0.44959,-1.063704 0,-0.09706 -3.192018,-2.672749 -7.093374,-5.723741 -3.901355,-3.050991 -7.193658,-5.62617 -7.316226,-5.722616 -0.15477,-0.121784 -0.51366,0.01684 -1.174699,0.453725 -1.471979,0.972844 -3.044272,1.710285 -4.783787,2.243701 -1.443347,0.442598 -1.864349,0.488518 -4.571673,0.498637 -2.591229,0.0097 -3.168872,-0.043 -4.408742,-0.402118 C 15.135127,74.16742 10.432197,68.727994 9.6691722,61.992343 9.341302,59.098048 9.8635347,56.167124 11.199515,53.403614 c 1.829982,-3.785369 4.929932,-6.666636 8.83187,-8.208836 4.076924,-1.611364 8.724893,-1.557273 12.785442,0.148787 2.873662,1.207386 6.176672,4.036643 7.574739,6.48829 0.347892,0.610061 0.713856,1.111155 0.813253,1.11354 0.0994,0.0024 2.905121,-1.036202 6.23494,-2.307974 l 6.054217,-2.312311 -0.06535,-2.340266 c -0.03606,-1.291258 0.03288,-2.988327 0.153795,-3.786049 1.312332,-8.65796 8.259291,-15.178543 17.248734,-16.190079 6.76301,-0.761007 13.839356,2.471073 17.844509,8.150376 l 0.745273,1.056795 0.92206,-0.347117 c 0.507134,-0.190913 3.44001,-1.306807 6.517502,-2.479763 l 5.595441,-2.132648 0.0496,-1.682109 c 0.21551,-7.309167 5.20861,-13.283416 12.66242,-15.150578 1.81487,-0.454624 5.63881,-0.399124 7.54288,0.109476 2.93127,0.782974 5.76461,2.444683 7.78145,4.563686 1.3937,1.464306 2.11342,2.524023 2.96919,4.371846 0.90248,1.948693 1.2667,3.430627 1.39437,5.673451 0.32877,5.775397 -2.5386,11.219533 -7.52565,14.288591 -2.37054,1.458839 -4.26999,2.049828 -7.99881,2.488726 -0.58224,0.06853 -0.87882,0.196377 -0.94307,0.406525 -0.10136,0.331544 -2.27386,13.283297 -2.27386,13.556061 0,0.09089 0.35085,0.299239 0.77967,0.463006 1.2059,0.460537 3.34852,1.945352 4.60601,3.191924 3.17688,3.149288 4.78333,6.944709 4.77791,11.288337 -0.005,4.145362 -1.4299,7.721997 -4.26481,10.706426 -2.9576,3.11358 -6.37859,4.722233 -11.12914,5.23325 l -1.34481,0.144662 -1.49636,8.855421 c -0.823,4.87048 -1.49871,8.91094 -1.50157,8.97879 -0.003,0.0679 0.15347,0.17372 0.34741,0.23528 0.71982,0.22846 3.19212,1.97684 4.31343,3.0504 6.42131,6.14788 6.54284,16.17523 0.27203,22.44604 -2.32545,2.32545 -5.08536,3.80395 -8.42882,4.51536 -1.53646,0.32693 -4.882802,0.3173 -6.449026,-0.0186 z M 93.008351,107.9848 c 1.500221,-0.71078 3.609517,-1.29488 5.302332,-1.46832 1.067355,-0.10935 1.147874,-0.14963 1.242221,-0.62136 0.315321,-1.57661 3.024366,-17.922811 2.975556,-17.954298 -0.0322,-0.02078 -0.62786,-0.398946 -1.32364,-0.840362 -0.69578,-0.441414 -1.883863,-1.417055 -2.640178,-2.168089 l -1.375115,-1.365517 -7.830741,2.859176 c -4.306906,1.572547 -7.852334,2.880771 -7.878728,2.907166 -0.02639,0.02639 0.03601,0.614181 0.138681,1.306193 0.354857,2.391811 -0.140955,5.754979 -1.202185,8.15461 -0.248244,0.561328 -0.42997,1.037982 -0.403834,1.05923 1.4568,1.184341 11.420252,8.761231 11.520826,8.761231 0.08019,0 0.743855,-0.28335 1.474805,-0.62966 z M 86.566265,79.811024 c 5.438772,-1.990825 7.572286,-2.848766 7.526592,-3.026638 -0.03507,-0.136533 -0.107623,-1.07937 -0.161218,-2.095191 -0.117934,-2.235226 0.157816,-4.122425 0.891868,-6.103818 0.294804,-0.795752 0.549995,-1.585394 0.567094,-1.754757 0.01989,-0.197065 -1.621621,-1.740755 -4.559232,-4.287525 -4.535249,-3.931851 -4.595113,-3.975855 -4.989904,-3.66797 -0.219772,0.171392 -0.837864,0.650862 -1.373537,1.065488 -2.605208,2.016506 -6.302386,3.484991 -9.602905,3.814189 l -1.310806,0.13074 -0.916075,6.23494 c -0.503841,3.429217 -0.964871,6.530799 -1.024509,6.892406 l -0.108434,0.657466 1.300702,0.642842 c 1.536353,0.759308 3.257035,2.040349 4.627533,3.445186 0.61436,0.629751 1.0925,0.978123 1.26506,0.921717 0.152575,-0.04987 3.693072,-1.340958 7.867771,-2.869075 z M 57.613934,78.625845 c 1.59043,-0.869302 3.583764,-1.550855 5.376923,-1.838454 0.74057,-0.118778 1.369354,-0.233207 1.397294,-0.254284 0.146289,-0.110359 2.008221,-13.551801 1.892759,-13.66397 -0.07498,-0.07284 -0.575933,-0.304708 -1.113224,-0.515252 -3.054896,-1.197103 -5.751987,-3.359843 -8.511059,-6.824837 l -0.451808,-0.567405 -2.801205,1.07792 c -1.540662,0.592856 -4.521574,1.734077 -6.624249,2.536048 l -3.823045,1.458128 -0.128611,1.474094 c -0.154923,1.775681 -0.609936,3.636222 -1.233739,5.044734 l -0.460827,1.04052 5.36028,4.200444 c 2.948155,2.310244 6.29862,4.947069 7.445478,5.859608 1.146857,0.91254 2.150021,1.664799 2.22925,1.671686 0.07923,0.0069 0.729833,-0.307653 1.445783,-0.69898 z M 101.10441,60.548617 c 1.96927,-1.263676 4.57036,-2.215218 6.83206,-2.499331 l 1.01576,-0.127599 1.11806,-6.596386 c 0.61494,-3.628012 1.17407,-6.928458 1.24251,-7.334326 l 0.12445,-0.737938 -1.21372,-0.707845 c -1.50646,-0.878568 -3.62896,-2.838065 -4.70013,-4.339162 l -0.81038,-1.135655 -1.12157,0.422974 c -1.06395,0.401243 -10.727307,4.095405 -11.35998,4.342753 -0.26173,0.102326 -0.28706,0.377722 -0.204892,2.227679 0.107698,2.424788 -0.219857,4.740407 -0.961909,6.800113 -0.252573,0.701062 -0.500519,1.406431 -0.550989,1.567486 -0.06568,0.20958 1.278231,1.481116 4.727495,4.472891 2.650594,2.299036 4.866315,4.180066 4.923825,4.180066 0.0575,0 0.48024,-0.241073 0.93941,-0.53572 z"
     id="path28" />
</svg>
